<?xml version="1.0" encoding="iso-8859-1"?>
<!-- Generator: Adobe Illustrator 19.0.0, SVG Export Plug-In . SVG Version: 6.00 Build 0)  -->
<svg version="1.1" id="Capa_1" xmlns="http://www.w3.org/2000/svg" xmlns:xlink="http://www.w3.org/1999/xlink" x="0px" y="0px"
	 viewBox="0 0 464.01 464.01" style="enable-background:new 0 0 464.01 464.01;" xml:space="preserve">
<path style="fill:#F8C09C;" d="M0.01,60.005c-0.191,8.201,2.855,16.148,8.48,22.12c5.922,6.306,14.189,9.882,22.84,9.88h392.68v288
	H54.634c-14.487,0.001-28.381-5.754-38.624-16c-10.246-10.243-16.001-24.137-16-38.624L0.01,60.005z"/>
<path style="fill:#EF937D;" d="M40.01,372.005c-10.246-10.243-16.001-24.137-16-38.624V91.053
	c-14.347-3.355-24.368-16.319-24-31.048v265.376c-0.013,28.337,21.663,51.97,49.896,54.4
	C46.318,377.579,42.997,374.97,40.01,372.005z"/>
<path style="fill:#1F8B94;" d="M312.01,60.005v-32H32.69c-8.307-0.002-16.273,3.299-22.144,9.176l-1.36,1.36
	C-2.778,50.498-3.083,69.796,8.498,82.125c5.92,6.304,14.184,9.88,22.832,9.88h352.68v-32L312.01,60.005z"/>
<path style="fill:#31B1AE;" d="M352.01,60.005h-352c-0.384,17.284,13.316,31.608,30.6,31.992c0.237,0.005,0.474,0.008,0.712,0.008
	H384.01v-32H352.01z"/>
<path style="fill:#EF937D;" d="M456.01,276.005H344.578c-10.607,0-20.779-4.213-28.28-11.712
	c-15.623-15.619-15.626-40.945-0.007-56.569c0.003-0.002,0.005-0.005,0.007-0.007c7.501-7.499,17.673-11.712,28.28-11.712H456.01
	V276.005z"/>
<g>
	<path style="fill:#67342C;" d="M352.01,252.005c-8.837,0-16-7.163-16-16c0-8.837,7.163-16,16-16s16,7.163,16,16
		C368.01,244.841,360.846,252.005,352.01,252.005z"/>
	<path style="fill:#67342C;" d="M392.01,164.005c-4.418,0-8-3.582-8-8v-24h-120c-4.418,0-8-3.582-8-8c0-4.418,3.582-8,8-8h136v40
		C400.01,160.423,396.428,164.005,392.01,164.005z"/>
	<path style="fill:#67342C;" d="M152.01,356.005H72.978C45.935,356,24.014,334.079,24.01,307.037v-31.032
		c0.003-4.418,3.587-7.998,8.006-7.994c4.414,0.003,7.991,3.581,7.994,7.994v31.032c0.028,8.738,3.497,17.113,9.656,23.312
		c6.169,6.203,14.564,9.68,23.312,9.656h79.032c4.418,0,8,3.582,8,8S156.428,356.005,152.01,356.005L152.01,356.005z"/>
</g>
<circle style="fill:#FFD884;" cx="408.01" cy="380.005" r="56"/>
<path style="fill:#FFBF41;" d="M408.01,324.005c-1.352,0-2.672,0.104-4,0.2c30.818,2.153,54.055,28.881,51.902,59.698
	c-1.944,27.82-24.082,49.958-51.902,51.902c1.328,0.096,2.648,0.2,4,0.2c30.928,0,56-25.072,56-56S438.938,324.005,408.01,324.005
	L408.01,324.005L408.01,324.005z"/>
<circle style="fill:#FFD884;" cx="328.01" cy="380.005" r="56"/>
<path style="fill:#FFBF41;" d="M328.01,324.005c-1.352,0-2.672,0.104-4,0.2c30.818,2.153,54.055,28.881,51.902,59.698
	c-1.944,27.82-24.082,49.958-51.902,51.902c1.328,0.096,2.648,0.2,4,0.2c30.928,0,56-25.072,56-56S358.938,324.005,328.01,324.005
	L328.01,324.005z"/>
<g>
</g>
<g>
</g>
<g>
</g>
<g>
</g>
<g>
</g>
<g>
</g>
<g>
</g>
<g>
</g>
<g>
</g>
<g>
</g>
<g>
</g>
<g>
</g>
<g>
</g>
<g>
</g>
<g>
</g>
</svg>
